# xmcd
#
# Track frame offsets:
#	150
#	20480
#	54667
#	93882
#	116102
#	145062
#	162487
#	190980
#
# Disc length: 2795 seconds
# Revision: 0
# Processed by: cddbd v1.5.2PL0 Copyright (c) Steve Scherf et al.
# Submitted via: dBpowerAMP V12.0
#
DISCID=6b0ae908
DTITLE=Celia Cruz - Rie Y Llora [The Remixes]
DYEAR=2003
DGENRE=House
TTITLE0=Rie Y Llora [Obas - Que Viva La Reina Mix Radio Version]
TTITLE1=Rie Y Llora [Obas - Que Viva La Reina Mix Extended Version]
TTITLE2=Rie Y Llora [Obas - Que Viva La Reina Mix Dub Version]
TTITLE3=Rie Y Llora [D'Motion Brothers Azuca' Forever Radio Remix Edit]
TTITLE4=Rie Y Llora [D'Motion Brothers Azuca' Forever Extended Remix]
TTITLE5=Rie Y Llora [DJ Fluid Radio Remix]
TTITLE6=Rie Y Llora [DJ Fluid Extended Mix]
TTITLE7=Rie Y Llora [Original Album Version]
EXTD=
EXTT0=
EXTT1=
EXTT2=
EXTT3=
EXTT4=
EXTT5=
EXTT6=
EXTT7=
PLAYORDER=
